# xmcd CD database file
#
# Track frame offsets:
#	150
#	14521
#	27393
#	45767
#	66440
#	83801
#	99947
#	115169
#	128671
#	146462
#	160784
#	174849
#	183811
#	195939
#	211815
#	233365
#	255970
#	271552
#	289822
#	306969
#
# Disc length: 4393 seconds
#
# Revision: 1
# Processed by: cddbd v1.5.2PL0 Copyright (c) Steve Scherf et al.
# Submitted via: CDex 1.51
#
DISCID=f1112714
DTITLE=Various Artist - Maxi Slows   [CD 2-3]
DYEAR=2011
DGENRE=Slows
TTITLE0=Richard Sanderson - Reality 
TTITLE1=Percy Sledge - When A Man Loves A Woman
TTITLE2=The Korgis - Everybody's Got To Learn Sometimes
TTITLE3=Berlin - Take My Breath Away 
TTITLE4=Ten Cc - I'm Not In Love
TTITLE5=Harold Melvin and The Blue Notes - If You Don't Know Me By Now
TTITLE6=The Delfonics - La La Means I Love You
TTITLE7=Citizen's - Remember Darling
TTITLE8=Claudia Donato - La Solitudine
TTITLE9=Cook Da Book - Your Eyes  (B.O. La Boum)
TTITLE10=Gloria Gaynor - I Want To Know What Love Is
TTITLE11=Oliver Cheatham - Ain't No Sunshine 
TTITLE12=Aaron Neville - Tell It Like It Is 
TTITLE13=Lana Davis - Spending Good Times
TTITLE14=Marvin Scott - Never Tell Me Goodbye
TTITLE15=Stevie B - Because I Love You 
TTITLE16=Karoline Kruger - You Call It Love  (B.O. L'étudiante)
TTITLE17=Adrian Gurvitz - Classic
TTITLE18=Century - Lover Why
TTITLE19=Ray Charles and Dee Dee Bridgewater - Precious Thing
EXTD=YEAR: 2011
EXTT0=
EXTT1=
EXTT2=
EXTT3=
EXTT4=
EXTT5=
EXTT6=
EXTT7=
EXTT8=
EXTT9=
EXTT10=
EXTT11=
EXTT12=
EXTT13=
EXTT14=
EXTT15=
EXTT16=
EXTT17=
EXTT18=
EXTT19=
PLAYORDER=
